# xmcd
#
# Track frame offsets:
#	150
#	16419
#	30701
#	49044
#	68572
#	84821
#	101165
#	117820
#	133178
#	156910
#	180807
#	198092
#
# Disc length: 2890 seconds
#
# Revision: 1
# Processed by: cddbd v1.4PL0 Copyright (c) Steve Scherf et al.
# Submitted via: EasyCDDAExtractor 5.0.7
#
DISCID=8d0b480c
DTITLE=The Shakin'Apostles - Frontier A Go Go
DYEAR=2002
DGENRE=Country Rock
TTITLE0=Austin Texas Blues
TTITLE1=New Day
TTITLE2=Just Like Jesse James
TTITLE3=She Can Add
TTITLE4=Jackass Hill
TTITLE5=The Harvest
TTITLE6=The Banquet
TTITLE7=Snakecharmer
TTITLE8=Galveston Bay
TTITLE9=Train To Nowhere
TTITLE10=Child Of The Universe
TTITLE11=In My Head
EXTD=
EXTT0=
EXTT1=
EXTT2=
EXTT3=
EXTT4=
EXTT5=
EXTT6=
EXTT7=
EXTT8=
EXTT9=
EXTT10=
EXTT11=
PLAYORDER=
